<?xml version="1.0" encoding="utf-8"?>
<!-- Generator: Adobe Illustrator 17.0.0, SVG Export Plug-In . SVG Version: 6.00 Build 0)  -->
<!DOCTYPE svg PUBLIC "-//W3C//DTD SVG 1.1//EN" "http://www.w3.org/Graphics/SVG/1.1/DTD/svg11.dtd">
<svg version="1.1" id="Capa_1" xmlns="http://www.w3.org/2000/svg" xmlns:xlink="http://www.w3.org/1999/xlink" x="0px" y="0px"
	 width="52px" height="52px" viewBox="0 0 52 52" enable-background="new 0 0 52 52" xml:space="preserve">
<g>
	<path d="M43.476,10.673H9.819C5.406,10.673,1,13.783,1,18.196v17.735c0,4.413,4.406,8.396,8.819,8.396h33.657
		c4.414,0,7.524-3.983,7.524-8.395V18.196C51,13.783,47.89,10.673,43.476,10.673z M43.476,42.404H9.819
		c-3.373,0-6.896-3.099-6.896-6.472V18.196c0-3.374,3.523-5.6,6.896-5.6h31.565c1.062,0,1.933-0.005,1.945-0.012
		c0.012-0.007,0.903-0.049,1.921,0.251c2.325,0.686,3.826,2.665,3.826,5.362v17.735C49.077,39.305,46.85,42.404,43.476,42.404z"/>
	<path d="M17.523,28.593c-1.198,0.77-3.082,1.363-5.393-0.012c-0.913-0.543-2.201-1.74-2.885-1.24
		c-0.684,0.5-1.635,1.764-2.059,2.738c-0.468,1.074-0.961,2.819-1.18,5.598c-0.084,1.059,0.761,1.919,1.823,1.919h13.503
		c1.062,0,2.217-0.819,2.334-1.875c0.163-1.469,0.064-3.609-1.246-5.709c-0.562-0.901-1.516-2.106-2.156-2.606
		C19.624,26.905,18.416,28.018,17.523,28.593z"/>
	<circle cx="14.701" cy="21.928" r="5.429"/>
	<path d="M47.163,18.365H27.921c-0.242,0-0.438,0.216-0.438,0.481c0,0.266,0.195,0.481,0.438,0.481h19.242
		c0.241,0,0.438-0.214,0.438-0.481C47.601,18.582,47.406,18.365,47.163,18.365z"/>
	<path d="M47.163,20.288H27.921c-0.242,0-0.438,0.216-0.438,0.481c0,0.266,0.195,0.481,0.438,0.481h19.242
		c0.241,0,0.438-0.214,0.438-0.481C47.601,20.505,47.406,20.288,47.163,20.288z"/>
	<path d="M47.163,22.212H27.921c-0.242,0-0.438,0.216-0.438,0.481c0,0.266,0.195,0.481,0.438,0.481h19.242
		c0.241,0,0.438-0.214,0.438-0.481C47.601,22.428,47.406,22.212,47.163,22.212z"/>
	<path d="M47.163,24.135H27.921c-0.242,0-0.438,0.216-0.438,0.481c0,0.266,0.195,0.481,0.438,0.481h19.242
		c0.241,0,0.438-0.214,0.438-0.481C47.601,24.351,47.406,24.135,47.163,24.135z"/>
	<path d="M47.163,26.058H27.921c-0.242,0-0.438,0.216-0.438,0.481c0,0.266,0.195,0.481,0.438,0.481h19.242
		c0.241,0,0.438-0.214,0.438-0.481C47.601,26.274,47.406,26.058,47.163,26.058z"/>
	<path d="M47.163,27.981H27.921c-0.242,0-0.438,0.216-0.438,0.481c0,0.266,0.195,0.481,0.438,0.481h19.242
		c0.241,0,0.438-0.214,0.438-0.481C47.601,28.197,47.406,27.981,47.163,27.981z"/>
	<path d="M47.163,29.904H27.921c-0.242,0-0.438,0.216-0.438,0.481c0,0.266,0.195,0.481,0.438,0.481h19.242
		c0.241,0,0.438-0.214,0.438-0.481C47.601,30.12,47.406,29.904,47.163,29.904z"/>
	<path d="M47.163,31.827H27.921c-0.242,0-0.438,0.216-0.438,0.481c0,0.266,0.195,0.481,0.438,0.481h19.242
		c0.241,0,0.438-0.214,0.438-0.481C47.601,32.043,47.406,31.827,47.163,31.827z"/>
</g>
</svg>
