<svg width="64" xmlns="http://www.w3.org/2000/svg" height="64" viewBox="0 0 64 64" xmlns:xlink="http://www.w3.org/1999/xlink" enable-background="new 0 0 64 64">
<g fill="none" stroke="#000" stroke-width="2" stroke-miterlimit="10">
<path d="m37.197,49.539l10.33-11.35c.357-.421 .647-.315 .647,.237v16.875c0,.553-.404,.808-.903,.57l-9.818-5.141c-.499-.236-.613-.77-.256-1.191z"/>
<path d="m26.304,51.256l-10.668-2.219c-.54-.112-.979,.244-.979,.797v6.875c0,.553 .447,1 1,1h5.875c.553,0 1.271-.356 1.605-.796l3.539-4.658c.336-.44 .168-.887-.372-.999z"/>
<path d="m14.657,26.44v4.166c0,.552 .447,1 1,1h2.812c.553,0 1.135-.427 1.3-.954l1.339-4.258c.166-.527-.148-.954-.7-.954h-4.751c-.553,0-1,.449-1,1z"/>
<path d="m27.292,25.44h-1.384c-.552,0-1.128,.429-1.285,.958l-1.264,4.25c-.157,.529 .163,.958 .715,.958h4.781"/>
</g>
<path d="m22.573,16.038c.125,.357 7.65,21.343 7.65,21.343 .221,.63 .641,.655 .936,.058l9.619-19.416 1.137-2.625c.593-1.963 .526-4.006-.198-6.07-1.85-5.279-7.649-8.067-12.928-6.217-5.278,1.849-8.066,7.65-6.216,12.927zm2.392-.839c-1.387-3.959 .702-8.31 4.662-9.697 3.96-1.388 8.309,.704 9.698,4.663 .688,1.965 .593,3.865-.286,5.65l-7.568,15.291c-.244,.494-.593,.473-.774-.048-.001,.001-5.67-15.684-5.732-15.859z"/>
<g fill="none" stroke="#000" stroke-miterlimit="10">
<circle cx="32.04" cy="12.382" r="4.94"/>
<g stroke-width="2">
<path d="m39.256,56.878l-6.978-3.541c-.541-.274-1.306-.129-1.707,.328l-2.535,2.886c-.401,.456-.234,.826 .374,.826h10.726c.608-0 .661-.224 .12-.499z"/>
<path d="m37.989,25.44h8.186c1.104,0 2,.896 2,2v2.56c0,1.104-.562,1.496-1.254,.875-.691-.621-2.049-.714-3.03-.207l-6.124,3.164c-.981,.507-1.777,.022-1.777-1.082v-5.31c-.001-1.104 .895-2 1.999-2z"/>
<path d="m14.334,35.834v8.167c0,.553 .436,1.1 .975,1.223l11.534,2.638c.538,.123 1.202-.163 1.482-.639l1.835-3.11c.28-.476 .171-1.156-.245-1.52l-2.313-2.025c-.416-.363-.753-1.106-.753-1.658v-3.075c0-.553-.447-1-1-1h-10.515c-.553-.001-1,.446-1,.999z"/>
<path d="m33.269,39.054l.816-1.184c.286-.473 .966-.851 1.519-.847l7.083,.066c.553,.005 .714,.354 .361,.778l-9.826,11.53c-.353,.425-1.038,.566-1.53,.317l-.269-.127c-.492-.25-.664-.838-.383-1.314l3.501-5.932c.281-.476-.075-1.237-.528-1.554l-.442-.309c-.453-.313-.588-.952-.302-1.424z"/>
</g>
</g>
</svg>
