<svg width="300" xmlns="http://www.w3.org/2000/svg" height="300" viewBox="0 0 300 300" shape-rendering="geometricPrecision" xmlns:xlink="http://www.w3.org/1999/xlink" image-rendering="optimizeQuality" fill-rule="evenodd" text-rendering="geometricPrecision" enable-background="new 0 0 512 512" clip-rule="evenodd">
<path d="m89.9291,29.4697h119.026c15.8622,0 28.839,14.7142 28.839,32.7012v23.635h8.3126v-12.8799h22.8945v47.263h-22.8945v-12.4098h-8.5134v16.8177c9.0461,3.6886 15.4205,12.6165 15.4205,23.0185 0,10.4091-6.3744,19.337-15.4205,23.0268v26.7142c-.5327,18.0496-4.4917,22.7563-12.0425,22.8591h-9.2043l.0213,.9898v25.4622c0,13.1291-9.4677,23.863-21.0472,23.863h-88.8354c-11.5795,0-21.0472-10.7339-21.0472-23.863v-25.4622l.0213-.9898h-10.9831c-7.6346-.5669-12.4996-7.9169-13.3854-23.9043v-24.2988c-9.0461-3.6886-15.4193-12.6165-15.4193-23.0256 0-10.402 6.3732-19.3299 15.4193-23.0197v-18.1878h-7.1976v12.4098h-22.8945v-47.263h22.8945v12.8799h7.1976v-1.5921-22.0429c0-17.987 12.9768-32.7012 28.839-32.7012zm-28.839,132.313v-25.5862c-4.9831,.7063-8.8583,6.1665-8.8583,12.7902 0,6.6295 3.8752,12.0839 8.8583,12.7961zm176.503-26.9563v25.5862c4.9831-.7134 8.8595-6.1665 8.8595-12.7972 0-6.6224-3.8764-12.0839-8.8595-12.789zm-113.516-12.4228c0,0-36.3343-2.5748-37.6287-4.2295 .0827,.2917 2.837,10.1598 18.2646,12.098 15.6614,1.9453 19.3642-7.8685 19.3642-7.8685zm49.3394-.5126c0,0 36.3343-2.5748 37.6287-4.2284-.0839,.2906-2.8382,10.1598-18.2646,12.0969-15.6626,1.9453-19.3642-7.8685-19.3642-7.8685zm19.1492,103.854c1.5579,7.3429 .9071,13.1776-3.8339,17.3303-6.4358,5.6197-14.9079,.4843-21.5445-2.8654-1.6122-.8102-3.1287-1.5154-4.4705-1.9453-6.887-2.1721-26.7638,1.6335-36.176,6.8386-14.7272,8.1461-21.4618-1.1634-19.4339-5.9587 0,0 2.1591-7.0736 19.4197-9.1984 .7547-.0969 1.5437-.1795 2.3539-.2634 19.4339-1.7291 35.7177-24.1252 35.7177-24.1252 0,0 15.9874-12.6591 22.2508,3.0449 2.1661,5.4331 4.0216,10.4091 5.1697,14.8795l-6.2835-.1795-2.4508-8.4024-1.5709,.1807-.7051,8.5606h-2.9693l-1.5709-8.2087-1.7516-.7051h-.0142v.1524 .0614l-.013,.1665v.0969l-.0142,.228v.1181l-.0071,.124v.1524l-.0142,.1323v.1654l-.013,.1594v.1665h-.0142v.1724l-.0142,.1807v.1724h-.013v.1866h-.0142v.1937l-.0142,.1878v.2067h-.0142v.2008h-.013v.2008h-.0142v.2079h-.0142v.2008h-.013v.2008h-.0142v.2209h-.0142v.2008h-.0142v.2008h-.013v.222h-.0142l-.0142,.2008-.0142,.2008-.013,.2067-.0142,.2008h-.0142v.2079h-.0071l-.013,.2008-.0142,.1866-.0142,.1937h-.013l-.0142,.1878-.0142,.1795-.0142,.1724h-.013l-.0142,.1807-.0142,.1594h-.013l-.0142,.1654-.0142,.1594-.0272,.1382-.0142,.1453-.0272,.1252-.0142,.1169h-.0142l-.0142,.1252-.0272,.111-.0071,.0898-.0272,.0827-.0283,.0827-.0142,.0697-.0272,.0484-.0272,.0413-.0142,.0283-.0283,.0272h-.0272c-.5256,0-6.4784,0-6.4784,0l.1807,2.9823 15.2256-.6909 2.4567,5.5984 2.263-.7063 .1736-5.0658h4.7268l.1795-.0142z"/>
</svg>
