<?xml version="1.0" encoding="utf-8"?>
<!-- Generator: Adobe Illustrator 16.0.4, SVG Export Plug-In . SVG Version: 6.00 Build 0)  -->
<!DOCTYPE svg PUBLIC "-//W3C//DTD SVG 1.1//EN" "http://www.w3.org/Graphics/SVG/1.1/DTD/svg11.dtd">
<svg version="1.1"
	 id="Capa_1" shape-rendering="geometricPrecision" text-rendering="geometricPrecision" image-rendering="optimizeQuality"
	 xmlns="http://www.w3.org/2000/svg" xmlns:xlink="http://www.w3.org/1999/xlink" x="0px" y="0px" width="300px" height="300px"
	 viewBox="0 0 300 300" enable-background="new 0 0 300 300" xml:space="preserve">
<g>
	<path d="M251.889,183.324c-3.682-23.578-14.561-43.037-32.621-58.331c-13.75-11.874-29.674-19.45-47.77-22.729V49.622
		c-17.914,8.739-32.006,9.938-42.482,0v52.482c-18.425,3.163-34.611,10.701-48.553,22.606
		c-18.069,15.497-28.851,35.036-32.349,58.614c-0.742,3.875-1.114,7.561-1.114,11.07c0,15.484,5.067,29.025,15.214,40.644
		c10.134,11.611,24.422,20.101,42.864,25.431v4.164c0,5.155,1.747,9.491,5.249,12.987c3.498,3.505,7.831,5.444,12.995,5.81
		c5.344,0.376,9.303-0.551,11.887-2.762c4.052,2.941,8.57,4.416,13.551,4.416c4.607,0,8.852-1.375,12.717-4.141
		c2.583,2.021,6.359,2.862,11.341,2.486c5.157-0.55,9.493-2.534,12.995-5.94c3.5-3.427,5.248-7.701,5.248-12.856v-3.038
		c19.905-5.169,35.301-13.827,46.182-26.008c10.506-11.605,15.76-25.335,15.76-41.193C253,190.885,252.629,187.199,251.889,183.324z
		 M126.085,210.012c-5.532,6.368-12.173,9.537-19.909,9.537c-7.741,0-14.378-3.169-19.909-9.537
		c-5.53-6.359-8.297-14.061-8.297-23.093c0-9.026,2.767-16.726,8.297-23.071c5.53-6.357,12.168-9.538,19.909-9.538
		c7.735,0,14.376,3.181,19.909,9.538c5.532,6.346,8.302,14.045,8.302,23.071C134.387,195.951,131.617,203.652,126.085,210.012z
		 M150.137,246.649c-4.61,0-8.02-1.187-10.228-3.55c-1.293-1.473-1.934-3.287-1.934-5.48c0-3.457,1.333-6.917,4.008-10.392v-0.001
		c2.67-3.451,5.293-5.186,7.879-5.186c2.581,0,5.016,1.911,7.325,5.754c2.304,3.824,3.465,7.463,3.465,10.934
		C160.652,244.018,157.143,246.649,150.137,246.649z M211.109,210.012c-5.439,6.368-12.119,9.537-20.051,9.537
		c-7.737,0-14.326-3.169-19.764-9.537c-5.445-6.359-8.164-14.061-8.164-23.093c0-9.026,2.719-16.726,8.164-23.071
		c5.438-6.357,12.026-9.538,19.764-9.538c7.932,0,14.611,3.181,20.051,9.538c5.433,6.346,8.158,14.045,8.158,23.071
		C219.268,195.951,216.542,203.652,211.109,210.012z"/>
	<path d="M145.793,47.576c17.493,5.521,14.777-20.486,6.426-32.662C152.084,28.993,134.019,41.314,145.793,47.576z"/>
</g>
</svg>
